<?xml version="1.0" encoding="UTF-8"?>
<svg xmlns="http://www.w3.org/2000/svg" xmlns:xlink="http://www.w3.org/1999/xlink" viewBox="0 0 456 96">
  <defs>
    <style>
      .uuid-b040377e-eab7-4dc5-b216-4e2aff236e01 {
        fill: none;
      }

      .uuid-b040377e-eab7-4dc5-b216-4e2aff236e01, .uuid-db1043e5-97c6-41f2-a42e-f63e7588b740, .uuid-3b2a2e29-c2a9-4543-94ae-124b9ec63857, .uuid-fc72c8d9-8ac3-4189-be78-45d10a44fcc8, .uuid-6ede3f11-973c-468f-927a-f795322e7f5f, .uuid-62568958-e73c-4fba-b3fb-fbbdff1db9fb {
        stroke-width: 0px;
      }

      .uuid-db1043e5-97c6-41f2-a42e-f63e7588b740 {
        fill: url(#uuid-ab9bfcb0-4c3e-4e5e-af74-b6547a029944);
        fill-opacity: .4;
      }

      .uuid-3b2a2e29-c2a9-4543-94ae-124b9ec63857 {
        fill: #e8eaea;
        opacity: .12;
      }

      .uuid-fc72c8d9-8ac3-4189-be78-45d10a44fcc8 {
        fill: #1d282d;
      }

      .uuid-6ede3f11-973c-468f-927a-f795322e7f5f {
        fill: url(#uuid-5cf752aa-a9e3-4a85-b9ad-6a8df3d8b2f0);
      }

      .uuid-62568958-e73c-4fba-b3fb-fbbdff1db9fb {
        fill: url(#uuid-d5a7a5aa-e75b-4de4-8424-89a6b236b741);
      }
    </style>
    <linearGradient id="uuid-d5a7a5aa-e75b-4de4-8424-89a6b236b741" x1="72.91" y1="77.46" x2="11.34" y2="15.89" gradientUnits="userSpaceOnUse">
      <stop offset="0" stop-color="#11181b"/>
      <stop offset=".2" stop-color="#1e282d"/>
      <stop offset=".5" stop-color="#343e42"/>
      <stop offset=".8" stop-color="#8e9496"/>
      <stop offset="1" stop-color="#e8eaea"/>
    </linearGradient>
    <linearGradient id="uuid-ab9bfcb0-4c3e-4e5e-af74-b6547a029944" x1="-224.12" y1="1180.82" x2="-217.3" y2="1148.24" gradientTransform="translate(270 1222) scale(1 -1)" gradientUnits="userSpaceOnUse">
      <stop offset=".22" stop-color="#7e9ea9"/>
      <stop offset="1" stop-color="#919ea0" stop-opacity="0"/>
    </linearGradient>
    <linearGradient id="uuid-5cf752aa-a9e3-4a85-b9ad-6a8df3d8b2f0" x1="-27.98" y1="-443.49" x2="15.4" y2="-443.49" gradientTransform="translate(-23.03 492.38) rotate(10)" gradientUnits="userSpaceOnUse">
      <stop offset="0" stop-color="#0cc5ff"/>
      <stop offset="1" stop-color="#0a74ff"/>
    </linearGradient>
  </defs>
  <g id="uuid-b28da042-8a78-460d-90a8-b199292606a7" data-name="Horizontal">
    <g>
      <path class="uuid-fc72c8d9-8ac3-4189-be78-45d10a44fcc8" d="M152.51,75.33l-35.78-35.52,1.98.64.19,33.28h-6.91V25.79h.32l35.33,35.58-1.6-.45-.13-33.66h6.78v48.06h-.19Z"/>
      <path class="uuid-fc72c8d9-8ac3-4189-be78-45d10a44fcc8" d="M162.18,37.31c0-1.02.4-1.88,1.22-2.56.81-.68,1.68-1.02,2.62-1.02s1.86.34,2.62,1.02c.77.68,1.15,1.54,1.15,2.56s-.38,1.87-1.15,2.53c-.77.66-1.64.99-2.62.99s-1.81-.33-2.62-.99c-.81-.66-1.22-1.5-1.22-2.53ZM162.56,46.91h6.59v26.82h-6.59v-26.82Z"/>
      <path class="uuid-fc72c8d9-8ac3-4189-be78-45d10a44fcc8" d="M183.13,46.91l.58,6.14-.26-.83c.9-1.92,2.28-3.47,4.16-4.64,1.88-1.17,4.1-1.76,6.66-1.76s4.6.75,6.24,2.24c1.64,1.49,2.48,3.44,2.53,5.82v19.84h-6.59v-17.54c-.04-1.36-.45-2.49-1.22-3.36-.77-.87-1.96-1.33-3.58-1.38-1.45,0-2.77.44-3.97,1.31-1.2.88-2.13,2.06-2.82,3.55-.68,1.49-1.02,3.22-1.02,5.18v12.22h-6.59v-26.82h5.89Z"/>
      <path class="uuid-fc72c8d9-8ac3-4189-be78-45d10a44fcc8" d="M211.31,86.66l-3.84-4.1c1.19-1.02,2.13-2.27,2.82-3.74.68-1.47,1.02-3.21,1.02-5.22v-26.69h6.66v26.94c0,3.07-.52,5.65-1.57,7.74-1.05,2.09-2.74,3.78-5.09,5.06ZM210.87,37.31c0-1.02.4-1.88,1.22-2.56.81-.68,1.68-1.02,2.62-1.02s1.86.34,2.62,1.02c.77.68,1.15,1.54,1.15,2.56s-.38,1.87-1.15,2.53c-.77.66-1.64.99-2.62.99s-1.81-.33-2.62-.99c-.81-.66-1.22-1.5-1.22-2.53Z"/>
      <path class="uuid-fc72c8d9-8ac3-4189-be78-45d10a44fcc8" d="M237.6,74.37c-2.52,0-4.8-.52-6.85-1.57-2.05-1.04-3.67-2.61-4.86-4.7-1.2-2.09-1.79-4.67-1.79-7.74s.63-5.63,1.89-7.81c1.26-2.18,2.92-3.85,4.99-5.02,2.07-1.17,4.32-1.76,6.75-1.76,2.56,0,4.66.54,6.3,1.63,1.64,1.09,2.93,2.36,3.87,3.81l-.45,1.02.64-5.31h6.08v26.82h-6.59v-6.72l.7,1.6c-.17.34-.53.82-1.09,1.44-.56.62-1.29,1.27-2.21,1.95-.92.68-1.98,1.25-3.2,1.7-1.22.45-2.61.67-4.19.67ZM239.4,68.99c1.41,0,2.67-.26,3.78-.77,1.11-.51,2.05-1.24,2.82-2.18.77-.94,1.3-2.05,1.6-3.33v-5.57c-.34-1.19-.92-2.23-1.73-3.1-.81-.87-1.78-1.57-2.91-2.08-1.13-.51-2.38-.77-3.74-.77-1.54,0-2.94.37-4.22,1.12-1.28.75-2.3,1.78-3.07,3.1-.77,1.32-1.15,2.86-1.15,4.61s.39,3.18,1.18,4.54c.79,1.37,1.85,2.44,3.17,3.23,1.32.79,2.75,1.18,4.29,1.18Z"/>
      <path class="uuid-fc72c8d9-8ac3-4189-be78-45d10a44fcc8" d="M254.3,27.26h30.98v6.59h-12.22v39.87h-6.85v-39.87h-11.9v-6.59Z"/>
      <path class="uuid-fc72c8d9-8ac3-4189-be78-45d10a44fcc8" d="M299.63,74.37c-3.12,0-5.78-.61-8-1.82-2.22-1.22-3.93-2.9-5.12-5.06-1.2-2.15-1.79-4.62-1.79-7.39s.67-5.04,2.02-7.2c1.34-2.15,3.16-3.87,5.44-5.15s4.81-1.92,7.58-1.92c3.58,0,6.56,1.05,8.93,3.14,2.37,2.09,3.96,5.01,4.77,8.77l-21.82,7.55-1.54-3.84,17.47-6.27-1.34.83c-.51-1.32-1.32-2.49-2.43-3.49-1.11-1-2.62-1.5-4.54-1.5-1.54,0-2.91.37-4.13,1.12-1.22.75-2.18,1.77-2.88,3.07-.7,1.3-1.06,2.83-1.06,4.58s.37,3.36,1.12,4.7c.75,1.34,1.77,2.4,3.07,3.17,1.3.77,2.76,1.15,4.38,1.15,1.15,0,2.25-.21,3.3-.64,1.04-.43,2.04-.96,2.98-1.6l3.01,4.86c-1.41.9-2.93,1.61-4.58,2.14-1.64.53-3.25.8-4.83.8Z"/>
      <path class="uuid-fc72c8d9-8ac3-4189-be78-45d10a44fcc8" d="M341.75,71.23c-1.19.98-2.63,1.75-4.32,2.3-1.69.55-3.38.83-5.09.83-2.94,0-5.54-.58-7.78-1.73-2.24-1.15-3.98-2.77-5.22-4.86-1.24-2.09-1.86-4.59-1.86-7.49s.66-5.34,1.98-7.46c1.32-2.11,3.07-3.73,5.25-4.86,2.18-1.13,4.48-1.7,6.91-1.7,2.22,0,4.18.3,5.89.9,1.71.6,3.18,1.43,4.42,2.5l-3.26,4.29c-.73-.6-1.63-1.13-2.72-1.6-1.09-.47-2.34-.7-3.74-.7-1.49,0-2.86.37-4.1,1.12-1.24.75-2.22,1.77-2.94,3.07-.73,1.3-1.09,2.78-1.09,4.45s.37,3.04,1.12,4.38c.75,1.34,1.78,2.4,3.1,3.17,1.32.77,2.84,1.15,4.54,1.15,1.11,0,2.13-.16,3.07-.48.94-.32,1.77-.78,2.5-1.38l3.33,4.1Z"/>
      <path class="uuid-fc72c8d9-8ac3-4189-be78-45d10a44fcc8" d="M347.05,73.73V24h6.4v28.99l-.06-1.09c.9-1.75,2.26-3.2,4.1-4.35,1.83-1.15,4.03-1.73,6.59-1.73s4.6.75,6.24,2.24c1.64,1.49,2.48,3.44,2.53,5.82v19.84h-6.59v-17.54c-.04-1.36-.45-2.49-1.22-3.36-.77-.87-1.96-1.33-3.58-1.38-1.45,0-2.77.44-3.97,1.31-1.2.88-2.13,2.07-2.82,3.58-.68,1.51-1.02,3.23-1.02,5.15v12.22h-6.59Z"/>
      <path class="uuid-fc72c8d9-8ac3-4189-be78-45d10a44fcc8" d="M400.04,73.73l20.42-48.32h.38l20.42,48.32h-7.81l-14.85-37.63,4.93-3.26-16.77,40.9h-6.72ZM412.46,56.32h16.51l2.37,5.89h-20.93l2.05-5.89Z"/>
      <path class="uuid-fc72c8d9-8ac3-4189-be78-45d10a44fcc8" d="M447.66,27.26h6.85v46.46h-6.85V27.26Z"/>
    </g>
  </g>
  <g id="uuid-be15d356-9e75-4c81-b2b8-2cbc3c1807e9" data-name="Web-only">
    <g>
      <path class="uuid-62568958-e73c-4fba-b3fb-fbbdff1db9fb" d="M48,24c-9.98,0-18.89,2.8-24.76,8.38-.26-.34-.48-.64-.62-.86-.89-1.41-1.92-3.06-2.67-4.73-.14-.31-.26-.6-.36-.87.65.16,1.42.27,2.26.22.8-.05,1.65-.32,2.42-.9.73-.55,1.16-1.21,1.4-1.73.45-.96.49-1.91.49-2.49,0-1.26-.31-2.74-.66-4.08-.72-2.78-2.14-12.82-3.01-14.93l-6.34,9.78c.71,1.73,1.63,4.2,2.26,6.39-.15-.03-.3-.06-.46-.07-.59-.07-1.46-.09-2.43.26-2.36.85-3.13,2.94-3.37,4.24-.49,2.67.43,5.36,1.32,7.34.93,2.07,1.87,2.87,1.87,2.87l2.57,2.97,1.55,1.38c-1.23,2.04-2.18,4.31-2.75,6.83-1.31-.67-2.85-1.46-4.19-2.34-.25-.16-.48-.32-.69-.48.53-.1,1.13-.27,1.68-.58.53-.29.99-.75,1.24-1.39.24-.61.21-1.19.12-1.63-.16-.8-.6-1.46-.89-1.85-.63-.85-1.57-1.76-2.47-2.55-1.87-1.65-7.83-8.01-9.48-9.16l.42,8.68c1.35.95,3.21,2.32,4.73,3.61-.12.03-.24.06-.36.1-.45.14-1.06.41-1.56.96-1.22,1.34-.72,3.01-.25,3.96.98,1.97,2.95,3.5,4.55,4.55,1.67,1.1,2.72,1.34,2.72,1.34l3.26,1.18.58.14c-.03.58-.09,1.15-.09,1.76,0,17.53,14.33,35.71,32,35.71s32-18.18,32-35.71-14.33-26.29-32-26.29Z"/>
      <path class="uuid-3b2a2e29-c2a9-4543-94ae-124b9ec63857" d="M25.76,71c-4.01-5.69-6.41-12.63-6.41-19.46,0-15.84,12.9-23.75,28.81-23.75,9.91,0,18.66,3.07,23.84,9.22-4.92-7.34-14.36-11.01-25.19-11.01-15.91,0-28.81,7.91-28.81,23.75,0,7.57,2.95,15.27,7.76,21.25Z"/>
      <path class="uuid-db1043e5-97c6-41f2-a42e-f63e7588b740" d="M74.5,51.15c0,11.46-13.02,22.85-26.5,22.85s-26.5-11.39-26.5-22.85,13.02-8.91,26.5-8.91,26.5-2.54,26.5,8.91Z"/>
      <path class="uuid-6ede3f11-973c-468f-927a-f795322e7f5f" d="M69.68,51.84c1.12,2.86-1.24,6.27-5.27,7.61-4.03,1.35-8.21.12-9.34-2.74-1.12-2.86,1.14-4.04,5.17-5.39,4.03-1.35,8.31-2.34,9.44.52ZM26.32,51.84c-1.12,2.86,1.24,6.27,5.27,7.61,4.03,1.35,8.21.12,9.34-2.74,1.12-2.86-1.14-4.04-5.17-5.39-4.03-1.35-8.31-2.34-9.44.52Z"/>
      <rect class="uuid-b040377e-eab7-4dc5-b216-4e2aff236e01" width="96" height="96"/>
    </g>
  </g>
</svg>